<svg xmlns="http://www.w3.org/2000/svg" viewBox="0 0 24 24" fill="currentColor">
  <path d="M12 .5C5.65.5.5 5.65.5 12c0 5.08 3.29 9.39 7.86 10.91.57.1.78-.25.78-.55 
  0-.27-.01-1.17-.02-2.12-3.2.7-3.88-1.38-3.88-1.38-.52-1.32-1.28-1.67-1.28-1.67-1.05-.72.08-.71.08-.71 
  1.16.08 1.77 1.2 1.77 1.2 1.03 1.76 2.7 1.25 3.36.96.1-.75.4-1.25.73-1.54-2.55-.29-5.23-1.28-5.23-5.68 
  0-1.25.45-2.27 1.2-3.07-.12-.3-.52-1.52.12-3.17 0 0 .98-.31 3.2 1.17a11.2 11.2 0 0 1 2.92-.39 
  c.99 0 1.99.13 2.92.39 2.22-1.48 3.2-1.17 3.2-1.17.64 1.65.24 2.87.12 3.17.75.8 1.2 1.82 1.2 3.07 
  0 4.41-2.69 5.39-5.25 5.67.41.36.77 1.08.77 2.18 0 1.57-.01 2.84-.01 3.23 0 .3.2.66.79.55A10.99 
  10.99 0 0 0 23.5 12c0-6.35-5.15-11.5-11.5-11.5z"/>
</svg>